{"title":"Joe Dirt (2001).mp4","uid":9703144,"size":4300263934,"categoryP":"video","categoryS":"hd___movies","magnet":"?xt=urn:btih:85ecca571205f71230cf8fefdf92d3afa0866cb9&amp;dn=Joe+Dirt+%282001%29.mp4&amp;tr=udp%3A%2F%2Ftracker.openbittorrent.com%3A80&amp;tr=udp%3A%2F%2Fopen.demonii.com%3A1337&amp;tr=udp%3A%2F%2Ftracker.coppersurfer.tk%3A6969&amp;tr=udp%3A%2F%2Fexodus.desync.com%3A6969","seeders":0,"leechers":3,"uploader":"PapaFatHead","files":1,"time":1394033992,"description":"General\nComplete name                  : Joe Dirt (2001).mp4\nFormat                         : MPEG-4\nFormat profile                 : Base Media\nCodec ID                       : isom\nFile size                      : 4.00 GiB\nDuration                       : 1h 31mn\nOverall bit rate               : 6 287 Kbps\n\nVideo\nID                             : 2\nFormat                         : AVC\nFormat/Info                    : Advanced Video Codec\nFormat profile                 : &lt;a class=&quot;__cf_email__&quot; href=&quot;/cdn-cgi/l/email-protection&quot; data-cfemail=&quot;a7e5c6d4c2cbcec9c2e7eb948997&quot;&gt;[email&amp;#160;protected]&lt;/a&gt;&lt;script cf-hash='f9e31' type=&quot;text/javascript&quot;&gt;\n/* &lt;![CDATA[ */!function(){try{var t=&quot;currentScript&quot;in document?document.currentScript:function(){for(var t=document.getElementsByTagName(&quot;script&quot;),e=t.length;e--;)if(t[e].getAttribute(&quot;cf-hash&quot;))return t[e]}();if(t&amp;&amp;t.previousSibling){var e,r,n,i,c=t.previousSibling,a=c.getAttribute(&quot;data-cfemail&quot;);if(a){for(e=&quot;&quot;,r=parseInt(a.substr(0,2),16),n=2;a.length-n;n+=2)i=parseInt(a.substr(n,2),16)^r,e+=String.fromCharCode(i);e=document.createTextNode(e),c.parentNode.replaceChild(e,c)}}}catch(u){}}();/* ]]&gt; */&lt;/script&gt;\nFormat settings, CABAC         : No\nFormat settings, ReFrames      : 1 frame\nCodec ID                       : avc1\nCodec ID/Info                  : Advanced Video Coding\nDuration                       : 1h 31mn\nBit rate                       : 5 994 Kbps\nWidth                          : 1 920 pixels\nHeight                         : 1 080 pixels\nDisplay aspect ratio           : 16:9\nFrame rate mode                : Constant\nFrame rate                     : 24.000 fps\nColor space                    : YUV\nChroma subsampling             : 4:2:0\nBit depth                      : 8 bits\nScan type                      : Progressive\nBits/(Pixel*Frame)             : 0.120\nStream size                    : 3.82 GiB (95%)\nLanguage                       : English\n\nAudio\nID                             : 1\nFormat                         : AAC\nFormat/Info                    : Advanced Audio Codec\nFormat profile                 : LC\nCodec ID                       : 40\nDuration                       : 1h 31mn\nBit rate mode                  : Constant\nBit rate                       : 288 Kbps\nChannel(s)                     : 6 channels\nChannel positions              : Front: L C R, Side: L R, LFE\nSampling rate                  : 48.0 KHz\nCompression mode               : Lossy\nStream size                    : 187 MiB (5%)\nLanguage                       : English\n","torrent":{"xt":"urn:btih:85ecca571205f71230cf8fefdf92d3afa0866cb9","amp;dn":"Joe+Dirt+%282001%29.mp4","amp;tr":["udp%3A%2F%2Ftracker.openbittorrent.com%3A80","udp%3A%2F%2Fopen.demonii.com%3A1337","udp%3A%2F%2Ftracker.coppersurfer.tk%3A6969","udp%3A%2F%2Fexodus.desync.com%3A6969"],"infoHash":"85ecca571205f71230cf8fefdf92d3afa0866cb9","infoHashBuffer":{"type":"Buffer","data":[133,236,202,87,18,5,247,18,48,207,143,239,223,146,211,175,160,134,108,185]},"announce":[],"urlList":[]}}